<svg aria-hidden="true" style="position: absolute; width: 0; height: 0; overflow: hidden;" version="1.1" xmlns="http://www.w3.org/2000/svg" xmlns:xlink="http://www.w3.org/1999/xlink">
<defs>
<symbol id="icon-scissors" viewBox="0 0 20 20">
<path d="M8.38 5.59c0-2.038-1.652-3.69-3.69-3.69s-3.69 1.652-3.69 3.69c0 2.038 1.652 3.69 3.69 3.69 0.96 0 1.826-0.376 2.483-0.976l1.827 1.687 0.012 0.009-0.004 0.003-1.836 1.693c-0.656-0.6-1.522-0.976-2.482-0.976-2.038 0-3.69 1.652-3.69 3.69s1.652 3.69 3.69 3.69 3.69-1.652 3.69-3.69c0-0.297-0.044-0.582-0.111-0.858l2.844-1.991 4.127 3.065c2.212 1.549 3.76-0.663 3.76-0.663l-10.731-7.515c0.066-0.276 0.111-0.561 0.111-0.858zM4.69 7.39c-0.994 0-1.8-0.806-1.8-1.8s0.806-1.8 1.8-1.8 1.8 0.806 1.8 1.8-0.806 1.8-1.8 1.8zM4.69 16.21c-0.994 0-1.8-0.806-1.8-1.8s0.806-1.8 1.8-1.8 1.8 0.806 1.8 1.8-0.806 1.8-1.8 1.8zM19 6.038c0 0-1.548-2.212-3.76-0.663l-3.205 2.235 2.354 1.648 4.611-3.22z"></path>
</symbol>
<symbol id="icon-bronze" viewBox="0 0 32 32">
<path d="M15.775 0.206c-0.169 0.112-2.081 1.494-4.256 3.069l-3.95 2.862-1.125 2.819c-3.294 8.306-3.944 9.975-3.944 10.125 0 0.25 3.625 8.606 3.781 8.706 0.069 0.044 2.781 1.019 6.025 2.156l5.906 2.081 4.625-1.156c3.931-0.975 4.656-1.175 4.8-1.306 0.156-0.137 0.269-0.506 1.019-3.238 0.462-1.694 0.844-3.144 0.844-3.225 0-0.331-1.819-11.206-1.906-11.4-0.15-0.325-4.344-7.625-4.456-7.756-0.181-0.206-6.713-3.944-6.894-3.944-0.094 0-0.306 0.094-0.469 0.206zM19.438 3.194l2.613 1.512 0.038 1.319c0.087 2.869 0.081 2.912-0.056 2.912-0.069 0-0.675-0.069-1.344-0.156s-1.256-0.156-1.3-0.156c-0.038 0-0.706-0.844-1.481-1.875-1.244-1.662-1.406-1.906-1.406-2.112 0-0.125 0.056-0.794 0.125-1.481s0.125-1.3 0.125-1.363c0-0.056 0.019-0.106 0.038-0.106 0.025 0 1.212 0.681 2.65 1.506zM15.475 2.106c-0.012 0.063-0.075 0.663-0.137 1.331l-0.106 1.219-1.856 1.344c-1.025 0.731-1.881 1.331-1.912 1.325-0.031 0-0.512-0.206-1.075-0.456-0.85-0.369-1.006-0.463-0.938-0.531 0.137-0.138 5.95-4.338 6.006-4.338 0.031 0 0.037 0.050 0.019 0.106zM17 7.625l1.313 1.75-0.563 5.794c-0.313 3.194-0.569 5.819-0.581 5.844-0.006 0.019-1.319-0.512-2.919-1.194l-2.906-1.238-0.019-0.212c-0.006-0.119 0.025-0.637 0.075-1.15 0.075-0.856 0.075-0.956-0.019-1.156-0.131-0.281-0.387-0.412-0.681-0.338-0.406 0.106-0.444 0.231-0.581 1.725l-0.119 1.35-1.637 3.444c-0.9 1.894-1.656 3.444-1.675 3.444-0.044 0-2.794-6.331-2.856-6.563-0.019-0.075 4.45-11.537 4.575-11.738 0.006-0.006 0.563 0.231 1.238 0.525l1.231 0.544v0.225c0 0.125-0.044 0.644-0.088 1.156-0.094 1.012-0.069 1.213 0.181 1.375 0.219 0.144 0.556 0.125 0.75-0.044 0.206-0.175 0.25-0.387 0.344-1.637 0.044-0.55 0.1-1.037 0.119-1.081 0.031-0.056 3.419-2.556 3.487-2.569 0.012-0.006 0.606 0.781 1.331 1.744zM25 9.644l1.462 2.55 0.894 5.419 0.9 5.419-0.45 1.656c-0.25 0.913-0.469 1.694-0.488 1.731-0.025 0.044-0.906-3.712-1.962-8.356l-1.925-8.431-0.031-1.394c-0.031-1.219-0.025-1.381 0.050-1.269 0.050 0.069 0.75 1.275 1.55 2.675zM21.081 10.088c0.65 0.081 1.188 0.162 1.2 0.175 0.038 0.037 4.087 17.887 4.069 17.913-0.025 0.025-5.587-1.631-5.825-1.731-0.087-0.038-0.419-0.7-1.15-2.319l-1.019-2.256 0.544-5.637c0.3-3.1 0.563-5.787 0.581-5.969 0.038-0.313 0.044-0.325 0.231-0.325 0.106 0 0.725 0.069 1.369 0.15zM14.125 21.125c1.694 0.719 3.094 1.325 3.113 1.337 0.063 0.069 2.012 4.425 2.012 4.506 0 0.1-1.3 3.481-1.369 3.55-0.025 0.025-1.212-0.363-2.637-0.869-1.425-0.5-3.713-1.3-5.088-1.788-1.375-0.481-2.525-0.9-2.556-0.925-0.069-0.069 3.275-7.125 3.369-7.125 0.037 0 1.456 0.587 3.156 1.313zM22.594 28.381c1.169 0.35 2.144 0.65 2.169 0.675 0.025 0.019-1.175 0.344-2.675 0.719-1.494 0.375-2.731 0.663-2.75 0.644-0.069-0.069 0.962-2.669 1.056-2.669 0.044 0 1.031 0.281 2.2 0.631z"></path>
<path d="M10.769 12.994c-0.519 0.319-0.281 1.131 0.331 1.131 0.313 0 0.588-0.281 0.588-0.594 0-0.294-0.081-0.444-0.313-0.563-0.238-0.125-0.363-0.119-0.606 0.025z"></path>
</symbol>
<symbol id="icon-news" viewBox="0 0 32 32">
<path d="M29 0h-22c-1.657 0-3 1.342-3 3v2h-1c-1.657 0-3 1.342-3 3v20c0 2.209 1.791 4 4 4h24c2.209 0 4-1.791 4-4v-25c0-1.658-1.344-3-3-3zM30 28c0 1.102-0.898 2-2 2h-24c-1.103 0-2-0.898-2-2v-20c0-0.552 0.448-1 1-1h1v20c0 0.553 0.447 1 1 1s1-0.447 1-1v-24c0-0.552 0.448-1 1-1h22c0.551 0 1 0.448 1 1v25zM19.498 13.005c-0.275 0-0.5-0.224-0.5-0.5s0.225-0.5 0.5-0.5h8c0.277 0 0.5 0.224 0.5 0.5s-0.223 0.5-0.5 0.5h-8zM19.498 10.005c-0.275 0-0.5-0.224-0.5-0.5s0.225-0.5 0.5-0.5h8c0.277 0 0.5 0.224 0.5 0.5s-0.223 0.5-0.5 0.5h-8zM19.498 7.005c-0.275 0-0.5-0.224-0.5-0.5s0.225-0.5 0.5-0.5h8c0.277 0 0.5 0.224 0.5 0.5s-0.223 0.5-0.5 0.5h-8zM16.5 27.004c0.276 0 0.5 0.225 0.5 0.5 0 0.277-0.225 0.5-0.5 0.5h-8c-0.276 0-0.5-0.223-0.5-0.5 0-0.275 0.224-0.5 0.5-0.5h8zM16.5 24.004c0.276 0 0.5 0.225 0.5 0.5 0 0.277-0.225 0.5-0.5 0.5h-8c-0.276 0-0.5-0.223-0.5-0.5 0-0.275 0.224-0.5 0.5-0.5h8zM16.5 21.004c0.276 0 0.5 0.225 0.5 0.5 0 0.277-0.225 0.5-0.5 0.5h-8c-0.276 0-0.5-0.223-0.5-0.5 0-0.275 0.224-0.5 0.5-0.5h8zM27.5 27.004c0.275 0 0.5 0.225 0.5 0.5 0 0.277-0.225 0.5-0.5 0.5h-8c-0.277 0-0.5-0.223-0.5-0.5 0-0.275 0.223-0.5 0.5-0.5h8zM27.5 24.004c0.275 0 0.5 0.225 0.5 0.5 0 0.277-0.225 0.5-0.5 0.5h-8c-0.277 0-0.5-0.223-0.5-0.5 0-0.275 0.223-0.5 0.5-0.5h8zM27.5 21.004c0.275 0 0.5 0.225 0.5 0.5 0 0.277-0.225 0.5-0.5 0.5h-8c-0.277 0-0.5-0.223-0.5-0.5 0-0.275 0.223-0.5 0.5-0.5h8zM27.5 15.004c0.275 0 0.5 0.224 0.5 0.5s-0.225 0.5-0.5 0.5h-19c-0.276 0-0.5-0.224-0.5-0.5s0.224-0.5 0.5-0.5h19zM27.5 18.004c0.275 0 0.5 0.225 0.5 0.5 0 0.277-0.225 0.5-0.5 0.5h-19c-0.276 0-0.5-0.223-0.5-0.5 0-0.275 0.224-0.5 0.5-0.5h19zM9 13h7c0.553 0 1-0.447 1-1v-6.996c0-0.553-0.447-1-1-1h-7c-0.553 0-1 0.447-1 1v6.996c0 0.552 0.447 1 1 1zM10 6h5v5h-5v-5z"></path>
</symbol>
</defs>
</svg>
